<svg width="263" height="256" viewBox="0 0 263 256" fill="none" xmlns="http://www.w3.org/2000/svg">
<g filter="url(#filter0_d_4_34)">
<circle cx="128" cy="124" r="124" fill="black"/>
<circle cx="128" cy="124" r="123.5" stroke="black"/>
</g>
<g filter="url(#filter1_i_4_34)">
<path d="M80.9443 152.061V166H34.7773V152.061H80.9443ZM40.6152 79.2656V166H22.7441V79.2656H40.6152ZM74.9277 114.591V128.173H34.7773V114.591H74.9277ZM80.8848 79.2656V93.2646H34.7773V79.2656H80.8848ZM117.997 166H99.1133L99.2324 152.061H117.997C122.683 152.061 126.635 151.008 129.852 148.903C133.068 146.759 135.491 143.641 137.119 139.551C138.787 135.46 139.621 130.516 139.621 124.718V120.488C139.621 116.04 139.145 112.129 138.191 108.753C137.278 105.377 135.908 102.538 134.081 100.234C132.254 97.931 130.01 96.2035 127.35 95.0518C124.689 93.8604 121.631 93.2646 118.176 93.2646H98.7559V79.2656H118.176C123.974 79.2656 129.276 80.2585 134.081 82.2441C138.926 84.1901 143.116 86.9899 146.65 90.6436C150.185 94.2972 152.905 98.6657 154.812 103.749C156.757 108.793 157.73 114.412 157.73 120.607V124.718C157.73 130.873 156.757 136.493 154.812 141.576C152.905 146.66 150.185 151.028 146.65 154.682C143.156 158.296 138.966 161.095 134.081 163.081C129.236 165.027 123.875 166 117.997 166ZM109.24 79.2656V166H91.3691V79.2656H109.24ZM220.994 137.228H238.806C238.448 143.065 236.84 148.248 233.98 152.775C231.161 157.303 227.209 160.837 222.126 163.379C217.082 165.921 211.006 167.191 203.897 167.191C198.338 167.191 193.354 166.238 188.945 164.332C184.537 162.386 180.764 159.606 177.627 155.992C174.529 152.378 172.166 148.01 170.538 142.887C168.91 137.764 168.096 132.025 168.096 125.671V119.654C168.096 113.3 168.93 107.562 170.598 102.438C172.305 97.2757 174.728 92.8874 177.865 89.2734C181.042 85.6595 184.835 82.8796 189.243 80.9336C193.651 78.9876 198.576 78.0146 204.017 78.0146C211.244 78.0146 217.34 79.3252 222.305 81.9463C227.309 84.5674 231.181 88.1813 233.921 92.7881C236.701 97.3949 238.369 102.637 238.925 108.515H221.054C220.855 105.02 220.16 102.061 218.969 99.6387C217.777 97.1764 215.97 95.3298 213.548 94.0986C211.165 92.8278 207.988 92.1924 204.017 92.1924C201.038 92.1924 198.437 92.7484 196.213 93.8604C193.989 94.9723 192.122 96.6602 190.613 98.9238C189.104 101.188 187.972 104.047 187.218 107.502C186.503 110.917 186.146 114.928 186.146 119.535V125.671C186.146 130.159 186.483 134.11 187.158 137.525C187.833 140.901 188.866 143.76 190.256 146.104C191.686 148.407 193.512 150.154 195.736 151.346C198 152.497 200.72 153.073 203.897 153.073C207.631 153.073 210.708 152.478 213.131 151.286C215.553 150.095 217.4 148.327 218.671 145.984C219.981 143.641 220.756 140.722 220.994 137.228Z" fill="white"/>
</g>
<path d="M80.9443 152.061H81.9443V151.061H80.9443V152.061ZM80.9443 166V167H81.9443V166H80.9443ZM34.7773 166H33.7773V167H34.7773V166ZM34.7773 152.061V151.061H33.7773V152.061H34.7773ZM40.6152 79.2656H41.6152V78.2656H40.6152V79.2656ZM40.6152 166V167H41.6152V166H40.6152ZM22.7441 166H21.7441V167H22.7441V166ZM22.7441 79.2656V78.2656H21.7441V79.2656H22.7441ZM74.9277 114.591H75.9277V113.591H74.9277V114.591ZM74.9277 128.173V129.173H75.9277V128.173H74.9277ZM34.7773 128.173H33.7773V129.173H34.7773V128.173ZM34.7773 114.591V113.591H33.7773V114.591H34.7773ZM80.8848 79.2656H81.8848V78.2656H80.8848V79.2656ZM80.8848 93.2646V94.2646H81.8848V93.2646H80.8848ZM34.7773 93.2646H33.7773V94.2646H34.7773V93.2646ZM34.7773 79.2656V78.2656H33.7773V79.2656H34.7773ZM79.9443 152.061V166H81.9443V152.061H79.9443ZM80.9443 165H34.7773V167H80.9443V165ZM35.7773 166V152.061H33.7773V166H35.7773ZM34.7773 153.061H80.9443V151.061H34.7773V153.061ZM39.6152 79.2656V166H41.6152V79.2656H39.6152ZM40.6152 165H22.7441V167H40.6152V165ZM23.7441 166V79.2656H21.7441V166H23.7441ZM22.7441 80.2656H40.6152V78.2656H22.7441V80.2656ZM73.9277 114.591V128.173H75.9277V114.591H73.9277ZM74.9277 127.173H34.7773V129.173H74.9277V127.173ZM35.7773 128.173V114.591H33.7773V128.173H35.7773ZM34.7773 115.591H74.9277V113.591H34.7773V115.591ZM79.8848 79.2656V93.2646H81.8848V79.2656H79.8848ZM80.8848 92.2646H34.7773V94.2646H80.8848V92.2646ZM35.7773 93.2646V79.2656H33.7773V93.2646H35.7773ZM34.7773 80.2656H80.8848V78.2656H34.7773V80.2656ZM99.1133 166L98.1133 165.991L98.1047 167H99.1133V166ZM99.2324 152.061V151.061H98.2409L98.2325 152.052L99.2324 152.061ZM129.852 148.903L130.399 149.74L130.406 149.735L129.852 148.903ZM137.119 139.551L136.193 139.173L136.19 139.181L137.119 139.551ZM138.191 108.753L137.226 109.014L137.229 109.025L138.191 108.753ZM127.35 95.0518L126.941 95.9645L126.952 95.9695L127.35 95.0518ZM98.7559 93.2646H97.7559V94.2646H98.7559V93.2646ZM98.7559 79.2656V78.2656H97.7559V79.2656H98.7559ZM134.081 82.2441L133.699 83.1684L133.708 83.1721L134.081 82.2441ZM146.65 90.6436L147.369 89.9483L146.65 90.6436ZM154.812 103.749L153.875 104.1L153.879 104.109L154.812 103.749ZM154.812 141.576L153.878 141.219L153.875 141.225L154.812 141.576ZM146.65 154.682L145.932 153.986L145.932 153.986L146.65 154.682ZM134.081 163.081L134.454 164.009L134.458 164.007L134.081 163.081ZM109.24 79.2656H110.24V78.2656H109.24V79.2656ZM109.24 166V167H110.24V166H109.24ZM91.3691 166H90.3691V167H91.3691V166ZM91.3691 79.2656V78.2656H90.3691V79.2656H91.3691ZM117.997 165H99.1133V167H117.997V165ZM100.113 166.009L100.232 152.069L98.2325 152.052L98.1133 165.991L100.113 166.009ZM99.2324 153.061H117.997V151.061H99.2324V153.061ZM117.997 153.061C122.835 153.061 126.987 151.973 130.399 149.74L129.304 148.067C126.283 150.044 122.532 151.061 117.997 151.061V153.061ZM130.406 149.735C133.815 147.463 136.356 144.173 138.048 139.921L136.19 139.181C134.626 143.11 132.322 146.054 129.297 148.071L130.406 149.735ZM138.045 139.928C139.775 135.687 140.621 130.607 140.621 124.718H138.621C138.621 130.425 137.8 135.234 136.193 139.173L138.045 139.928ZM140.621 124.718V120.488H138.621V124.718H140.621ZM140.621 120.488C140.621 115.972 140.138 111.965 139.154 108.481L137.229 109.025C138.152 112.292 138.621 116.109 138.621 120.488H140.621ZM139.157 108.492C138.214 105.009 136.79 102.041 134.865 99.613L133.298 100.856C135.026 103.034 136.342 105.745 137.226 109.014L139.157 108.492ZM134.865 99.613C132.937 97.1824 130.561 95.3521 127.747 94.134L126.952 95.9695C129.46 97.0548 131.572 98.6796 133.298 100.856L134.865 99.613ZM127.758 94.1391C124.947 92.8804 121.746 92.2646 118.176 92.2646V94.2646C121.516 94.2646 124.43 94.8403 126.941 95.9644L127.758 94.1391ZM118.176 92.2646H98.7559V94.2646H118.176V92.2646ZM99.7559 93.2646V79.2656H97.7559V93.2646H99.7559ZM98.7559 80.2656H118.176V78.2656H98.7559V80.2656ZM118.176 80.2656C123.858 80.2656 129.028 81.2382 133.699 83.1683L134.463 81.3199C129.523 79.2788 124.09 78.2656 118.176 78.2656V80.2656ZM133.708 83.1721C138.427 85.0671 142.498 87.789 145.932 91.3388L147.369 89.9483C143.734 86.1908 139.426 83.3131 134.454 81.3162L133.708 83.1721ZM145.932 91.3388C149.364 94.8873 152.014 99.1364 153.875 104.1L155.748 103.398C153.797 98.195 151.005 93.7071 147.369 89.9483L145.932 91.3388ZM153.879 104.109C155.774 109.022 156.73 114.517 156.73 120.607H158.73C158.73 114.307 157.741 108.563 155.744 103.389L153.879 104.109ZM156.73 120.607V124.718H158.73V120.607H156.73ZM156.73 124.718C156.73 130.767 155.775 136.263 153.878 141.219L155.745 141.934C157.74 136.722 158.73 130.98 158.73 124.718H156.73ZM153.875 141.225C152.014 146.189 149.364 150.438 145.932 153.986L147.369 155.377C151.005 151.618 153.797 147.13 155.748 141.927L153.875 141.225ZM145.932 153.986C142.538 157.495 138.467 160.219 133.704 162.155L134.458 164.007C139.465 161.972 143.773 159.096 147.369 155.377L145.932 153.986ZM133.708 162.153C128.996 164.046 123.763 165 117.997 165V167C123.986 167 129.476 166.008 134.454 164.009L133.708 162.153ZM108.24 79.2656V166H110.24V79.2656H108.24ZM109.24 165H91.3691V167H109.24V165ZM92.3691 166V79.2656H90.3691V166H92.3691ZM91.3691 80.2656H109.24V78.2656H91.3691V80.2656ZM220.994 137.228V136.228H220.06L219.996 137.16L220.994 137.228ZM238.806 137.228L239.804 137.289L239.869 136.228H238.806V137.228ZM233.98 152.775L233.135 152.241L233.132 152.247L233.98 152.775ZM222.126 163.379L221.679 162.484L221.676 162.486L222.126 163.379ZM188.945 164.332L188.541 165.247L188.548 165.25L188.945 164.332ZM177.627 155.992L176.868 156.643L176.872 156.648L177.627 155.992ZM170.538 142.887L169.585 143.19L170.538 142.887ZM170.598 102.438L169.648 102.124L169.647 102.129L170.598 102.438ZM177.865 89.2734L177.114 88.6132L177.11 88.6179L177.865 89.2734ZM222.305 81.9463L221.838 82.8306L221.841 82.8321L222.305 81.9463ZM233.921 92.7881L233.061 93.2993L233.065 93.3048L233.921 92.7881ZM238.925 108.515V109.515H240.024L239.92 108.42L238.925 108.515ZM221.054 108.515L220.055 108.571L220.109 109.515H221.054V108.515ZM218.969 99.6387L218.069 100.074L218.071 100.08L218.969 99.6387ZM213.548 94.0986L213.077 94.981L213.086 94.9856L213.095 94.9901L213.548 94.0986ZM187.218 107.502L186.241 107.289L186.239 107.297L187.218 107.502ZM187.158 137.525L186.177 137.719L186.178 137.722L187.158 137.525ZM190.256 146.104L189.396 146.614L189.401 146.622L189.406 146.631L190.256 146.104ZM195.736 151.346L195.264 152.227L195.273 152.232L195.283 152.237L195.736 151.346ZM218.671 145.984L217.798 145.496L217.792 145.508L218.671 145.984ZM220.994 138.228H238.806V136.228H220.994V138.228ZM237.808 137.166C237.459 142.852 235.896 147.869 233.135 152.241L234.826 153.309C237.783 148.627 239.437 143.279 239.804 137.289L237.808 137.166ZM233.132 152.247C230.416 156.607 226.608 160.02 221.679 162.484L222.573 164.273C227.81 161.655 231.906 157.998 234.829 153.304L233.132 152.247ZM221.676 162.486C216.803 164.941 210.889 166.191 203.897 166.191V168.191C211.123 168.191 217.361 166.9 222.576 164.272L221.676 162.486ZM203.897 166.191C198.453 166.191 193.607 165.258 189.342 163.414L188.548 165.25C193.1 167.218 198.222 168.191 203.897 168.191V166.191ZM189.349 163.417C185.075 161.53 181.422 158.839 178.382 155.337L176.872 156.648C180.106 160.374 183.999 163.242 188.541 165.247L189.349 163.417ZM178.386 155.341C175.386 151.842 173.084 147.596 171.491 142.584L169.585 143.19C171.249 148.424 173.672 152.915 176.868 156.643L178.386 155.341ZM171.491 142.584C169.899 137.575 169.096 131.94 169.096 125.671H167.096C167.096 132.11 167.921 137.953 169.585 143.19L171.491 142.584ZM169.096 125.671V119.654H167.096V125.671H169.096ZM169.096 119.654C169.096 113.387 169.918 107.755 171.549 102.748L169.647 102.129C167.941 107.368 167.096 113.213 167.096 119.654H169.096ZM171.547 102.753C173.219 97.6983 175.581 93.4304 178.62 89.929L177.11 88.6179C173.875 92.3444 171.392 96.8531 169.648 102.124L171.547 102.753ZM178.616 89.9337C181.697 86.429 185.371 83.7358 189.647 81.8484L188.839 80.0188C184.298 82.0233 180.387 84.89 177.114 88.6132L178.616 89.9337ZM189.647 81.8484C193.913 79.9654 198.697 79.0146 204.017 79.0146V77.0146C198.455 77.0146 193.39 78.0098 188.839 80.0188L189.647 81.8484ZM204.017 79.0146C211.127 79.0146 217.053 80.3042 221.838 82.8306L222.772 81.062C217.628 78.3462 211.362 77.0146 204.017 77.0146V79.0146ZM221.841 82.8321C226.69 85.3722 230.421 88.8603 233.061 93.2993L234.78 92.2769C231.94 87.5023 227.927 83.7626 222.769 81.0605L221.841 82.8321ZM233.065 93.3048C235.76 97.7708 237.386 102.866 237.929 108.609L239.92 108.42C239.352 102.408 237.642 97.0189 234.777 92.2714L233.065 93.3048ZM238.925 107.515H221.054V109.515H238.925V107.515ZM222.052 108.458C221.848 104.867 221.131 101.77 219.866 99.1974L218.071 100.08C219.189 102.352 219.862 105.172 220.055 108.571L222.052 108.458ZM219.869 99.2031C218.583 96.5455 216.62 94.538 214.001 93.2071L213.095 94.9901C215.321 96.1215 216.972 97.8073 218.069 100.074L219.869 99.2031ZM214.018 93.2163C211.439 91.8404 208.081 91.1924 204.017 91.1924V93.1924C207.895 93.1924 210.891 93.8152 213.077 94.981L214.018 93.2163ZM204.017 91.1924C200.913 91.1924 198.153 91.7721 195.766 92.9659L196.66 94.7548C198.72 93.7247 201.163 93.1924 204.017 93.1924V91.1924ZM195.766 92.9659C193.372 94.1629 191.378 95.9747 189.781 98.3691L191.445 99.4785C192.867 97.3456 194.606 95.7817 196.66 94.7548L195.766 92.9659ZM189.781 98.3691C188.186 100.763 187.014 103.746 186.241 107.289L188.195 107.715C188.93 104.347 190.023 101.612 191.445 99.4785L189.781 98.3691ZM186.239 107.297C185.506 110.797 185.146 114.88 185.146 119.535H187.146C187.146 114.977 187.499 111.037 188.197 107.707L186.239 107.297ZM185.146 119.535V125.671H187.146V119.535H185.146ZM185.146 125.671C185.146 130.206 185.486 134.225 186.177 137.719L188.139 137.331C187.48 133.995 187.146 130.111 187.146 125.671H185.146ZM186.178 137.722C186.869 141.18 187.935 144.152 189.396 146.614L191.116 145.593C189.796 143.369 188.797 140.622 188.139 137.329L186.178 137.722ZM189.406 146.631C190.921 149.072 192.874 150.947 195.264 152.227L196.209 150.464C194.151 149.362 192.45 147.742 191.105 145.576L189.406 146.631ZM195.283 152.237C197.718 153.476 200.601 154.073 203.897 154.073V152.073C200.839 152.073 198.282 151.519 196.19 150.454L195.283 152.237ZM203.897 154.073C207.728 154.073 210.97 153.463 213.572 152.183L212.69 150.389C210.447 151.492 207.533 152.073 203.897 152.073V154.073ZM213.572 152.183C216.178 150.902 218.179 148.989 219.55 146.461L217.792 145.508C216.621 147.666 214.929 149.288 212.69 150.389L213.572 152.183ZM219.544 146.473C220.945 143.967 221.746 140.895 221.992 137.296L219.996 137.16C219.765 140.55 219.018 143.315 217.798 145.496L219.544 146.473Z" fill="black"/>
<defs>
<filter id="filter0_d_4_34" x="0" y="0" width="256" height="256" filterUnits="userSpaceOnUse" color-interpolation-filters="sRGB">
<feFlood flood-opacity="0" result="BackgroundImageFix"/>
<feColorMatrix in="SourceAlpha" type="matrix" values="0 0 0 0 0 0 0 0 0 0 0 0 0 0 0 0 0 0 127 0" result="hardAlpha"/>
<feOffset dy="4"/>
<feGaussianBlur stdDeviation="2"/>
<feComposite in2="hardAlpha" operator="out"/>
<feColorMatrix type="matrix" values="0 0 0 0 0 0 0 0 0 0 0 0 0 0 0 0 0 0 0.25 0"/>
<feBlend mode="normal" in2="BackgroundImageFix" result="effect1_dropShadow_4_34"/>
<feBlend mode="normal" in="SourceGraphic" in2="effect1_dropShadow_4_34" result="shape"/>
</filter>
<filter id="filter1_i_4_34" x="22.7441" y="78.0146" width="216.181" height="93.1768" filterUnits="userSpaceOnUse" color-interpolation-filters="sRGB">
<feFlood flood-opacity="0" result="BackgroundImageFix"/>
<feBlend mode="normal" in="SourceGraphic" in2="BackgroundImageFix" result="shape"/>
<feColorMatrix in="SourceAlpha" type="matrix" values="0 0 0 0 0 0 0 0 0 0 0 0 0 0 0 0 0 0 127 0" result="hardAlpha"/>
<feOffset dy="4"/>
<feGaussianBlur stdDeviation="2"/>
<feComposite in2="hardAlpha" operator="arithmetic" k2="-1" k3="1"/>
<feColorMatrix type="matrix" values="0 0 0 0 0 0 0 0 0 0 0 0 0 0 0 0 0 0 0.25 0"/>
<feBlend mode="normal" in2="shape" result="effect1_innerShadow_4_34"/>
</filter>
</defs>
</svg>
