<svg width="263" height="256" viewBox="0 0 263 256" fill="none" xmlns="http://www.w3.org/2000/svg">
<g filter="url(#filter0_d_4_35)">
<circle cx="128" cy="124" r="124" fill="black"/>
<circle cx="128" cy="124" r="123.5" stroke="black"/>
</g>
<path d="M80.7656 153.133V166H34.6582V153.133H80.7656ZM39.6621 79.2656V166H23.2803V79.2656H39.6621ZM74.749 115.067V127.637H34.6582V115.067H74.749ZM80.5869 79.2656V92.1924H34.6582V79.2656H80.5869ZM118.057 166H99.3516L99.4707 153.133H118.057C123.1 153.133 127.33 152.021 130.745 149.797C134.16 147.533 136.742 144.297 138.489 140.087C140.237 135.838 141.11 130.754 141.11 124.837V120.369C141.11 115.802 140.614 111.771 139.621 108.276C138.628 104.782 137.159 101.843 135.213 99.46C133.307 97.0771 130.944 95.2702 128.124 94.0391C125.304 92.8079 122.068 92.1924 118.414 92.1924H98.9941V79.2656H118.414C124.212 79.2656 129.494 80.2386 134.26 82.1846C139.065 84.1305 143.215 86.9303 146.71 90.584C150.244 94.1979 152.945 98.5267 154.812 103.57C156.718 108.614 157.671 114.253 157.671 120.488V124.837C157.671 131.032 156.718 136.672 154.812 141.755C152.945 146.799 150.244 151.127 146.71 154.741C143.215 158.355 139.045 161.135 134.2 163.081C129.355 165.027 123.974 166 118.057 166ZM108.525 79.2656V166H92.1436V79.2656H108.525ZM222.364 137.466H238.746C238.309 143.264 236.701 148.407 233.921 152.895C231.141 157.342 227.269 160.837 222.305 163.379C217.34 165.921 211.324 167.191 204.255 167.191C198.814 167.191 193.91 166.238 189.541 164.332C185.212 162.386 181.499 159.626 178.401 156.052C175.343 152.438 173 148.109 171.372 143.065C169.744 137.982 168.93 132.283 168.93 125.969V119.356C168.93 113.042 169.764 107.343 171.432 102.26C173.1 97.1764 175.482 92.8477 178.58 89.2734C181.717 85.6595 185.47 82.8796 189.839 80.9336C194.247 78.9876 199.172 78.0146 204.612 78.0146C211.681 78.0146 217.658 79.3252 222.543 81.9463C227.428 84.5277 231.22 88.082 233.921 92.6094C236.621 97.1367 238.25 102.339 238.806 108.217H222.424C222.106 104.563 221.312 101.465 220.041 98.9238C218.81 96.3822 216.943 94.4561 214.441 93.1455C211.979 91.7952 208.703 91.1201 204.612 91.1201C201.435 91.1201 198.635 91.7158 196.213 92.9072C193.83 94.0986 191.844 95.8857 190.256 98.2686C188.667 100.612 187.476 103.55 186.682 107.085C185.887 110.58 185.49 114.631 185.49 119.237V125.969C185.49 130.377 185.848 134.328 186.562 137.823C187.277 141.318 188.389 144.277 189.898 146.699C191.408 149.122 193.354 150.968 195.736 152.239C198.119 153.51 200.959 154.146 204.255 154.146C208.266 154.146 211.522 153.51 214.024 152.239C216.566 150.968 218.492 149.102 219.803 146.64C221.153 144.177 222.007 141.119 222.364 137.466Z" fill="white"/>
<path d="M80.7656 153.133H81.7656V152.133H80.7656V153.133ZM80.7656 166V167H81.7656V166H80.7656ZM34.6582 166H33.6582V167H34.6582V166ZM34.6582 153.133V152.133H33.6582V153.133H34.6582ZM39.6621 79.2656H40.6621V78.2656H39.6621V79.2656ZM39.6621 166V167H40.6621V166H39.6621ZM23.2803 166H22.2803V167H23.2803V166ZM23.2803 79.2656V78.2656H22.2803V79.2656H23.2803ZM74.749 115.067H75.749V114.067H74.749V115.067ZM74.749 127.637V128.637H75.749V127.637H74.749ZM34.6582 127.637H33.6582V128.637H34.6582V127.637ZM34.6582 115.067V114.067H33.6582V115.067H34.6582ZM80.5869 79.2656H81.5869V78.2656H80.5869V79.2656ZM80.5869 92.1924V93.1924H81.5869V92.1924H80.5869ZM34.6582 92.1924H33.6582V93.1924H34.6582V92.1924ZM34.6582 79.2656V78.2656H33.6582V79.2656H34.6582ZM79.7656 153.133V166H81.7656V153.133H79.7656ZM80.7656 165H34.6582V167H80.7656V165ZM35.6582 166V153.133H33.6582V166H35.6582ZM34.6582 154.133H80.7656V152.133H34.6582V154.133ZM38.6621 79.2656V166H40.6621V79.2656H38.6621ZM39.6621 165H23.2803V167H39.6621V165ZM24.2803 166V79.2656H22.2803V166H24.2803ZM23.2803 80.2656H39.6621V78.2656H23.2803V80.2656ZM73.749 115.067V127.637H75.749V115.067H73.749ZM74.749 126.637H34.6582V128.637H74.749V126.637ZM35.6582 127.637V115.067H33.6582V127.637H35.6582ZM34.6582 116.067H74.749V114.067H34.6582V116.067ZM79.5869 79.2656V92.1924H81.5869V79.2656H79.5869ZM80.5869 91.1924H34.6582V93.1924H80.5869V91.1924ZM35.6582 92.1924V79.2656H33.6582V92.1924H35.6582ZM34.6582 80.2656H80.5869V78.2656H34.6582V80.2656ZM99.3516 166L98.3516 165.991L98.3423 167H99.3516V166ZM99.4707 153.133V152.133H98.4799L98.4707 153.124L99.4707 153.133ZM130.745 149.797L131.291 150.635L131.298 150.63L130.745 149.797ZM138.489 140.087L139.413 140.47L139.414 140.467L138.489 140.087ZM139.621 108.276L138.659 108.55L139.621 108.276ZM135.213 99.46L134.432 100.085L134.438 100.092L135.213 99.46ZM98.9941 92.1924H97.9941V93.1924H98.9941V92.1924ZM98.9941 79.2656V78.2656H97.9941V79.2656H98.9941ZM134.26 82.1846L133.882 83.1104L133.884 83.1115L134.26 82.1846ZM146.71 90.584L145.987 91.2752L145.995 91.2832L146.71 90.584ZM154.812 103.57L153.874 103.917L153.876 103.924L154.812 103.57ZM154.812 141.755L153.875 141.404L153.874 141.408L154.812 141.755ZM146.71 154.741L145.995 154.042L145.991 154.046L146.71 154.741ZM108.525 79.2656H109.525V78.2656H108.525V79.2656ZM108.525 166V167H109.525V166H108.525ZM92.1436 166H91.1436V167H92.1436V166ZM92.1436 79.2656V78.2656H91.1436V79.2656H92.1436ZM118.057 165H99.3516V167H118.057V165ZM100.352 166.009L100.471 153.142L98.4707 153.124L98.3516 165.991L100.352 166.009ZM99.4707 154.133H118.057V152.133H99.4707V154.133ZM118.057 154.133C123.248 154.133 127.678 152.987 131.291 150.635L130.199 148.959C126.981 151.054 122.953 152.133 118.057 152.133V154.133ZM131.298 150.63C134.897 148.245 137.598 144.842 139.413 140.47L137.566 139.704C135.886 143.751 133.424 146.822 130.193 148.963L131.298 150.63ZM139.414 140.467C141.223 136.068 142.11 130.849 142.11 124.837H140.11C140.11 130.66 139.25 135.607 137.564 139.707L139.414 140.467ZM142.11 124.837V120.369H140.11V124.837H142.11ZM142.11 120.369C142.11 115.732 141.607 111.606 140.583 108.003L138.659 108.55C139.621 111.936 140.11 115.872 140.11 120.369H142.11ZM140.583 108.003C139.56 104.4 138.034 101.333 135.987 98.8274L134.438 100.092C136.284 102.352 137.697 105.163 138.659 108.55L140.583 108.003ZM135.994 98.8353C133.985 96.3247 131.491 94.4181 128.524 93.1226L127.724 94.9555C130.396 96.1223 132.628 97.8296 134.432 100.085L135.994 98.8353ZM128.524 93.1226C125.557 91.8271 122.18 91.1924 118.414 91.1924V93.1924C121.955 93.1924 125.052 93.7888 127.724 94.9555L128.524 93.1226ZM118.414 91.1924H98.9941V93.1924H118.414V91.1924ZM99.9941 92.1924V79.2656H97.9941V92.1924H99.9941ZM98.9941 80.2656H118.414V78.2656H98.9941V80.2656ZM118.414 80.2656C124.099 80.2656 129.25 81.2192 133.882 83.1104L134.638 81.2588C129.738 79.258 124.326 78.2656 118.414 78.2656V80.2656ZM133.884 83.1115C138.562 85.0057 142.593 87.7264 145.987 91.2752L147.433 89.8928C143.837 86.1342 139.568 83.2554 134.635 81.2577L133.884 83.1115ZM145.995 91.2832C149.425 94.7904 152.053 98.9969 153.874 103.917L155.749 103.223C153.837 98.0564 151.064 93.6055 147.425 89.8848L145.995 91.2832ZM153.876 103.924C155.734 108.838 156.671 114.355 156.671 120.488H158.671C158.671 114.151 157.702 108.39 155.747 103.217L153.876 103.924ZM156.671 120.488V124.837H158.671V120.488H156.671ZM156.671 124.837C156.671 130.929 155.734 136.447 153.875 141.404L155.748 142.106C157.702 136.896 158.671 131.135 158.671 124.837H156.671ZM153.874 141.408C152.053 146.328 149.425 150.535 145.995 154.042L147.425 155.44C151.064 151.72 153.837 147.269 155.749 142.102L153.874 141.408ZM145.991 154.046C142.598 157.555 138.547 160.257 133.827 162.153L134.573 164.009C139.543 162.013 143.833 159.155 147.429 155.436L145.991 154.046ZM133.827 162.153C129.116 164.046 123.863 165 118.057 165V167C124.085 167 129.595 166.008 134.573 164.009L133.827 162.153ZM107.525 79.2656V166H109.525V79.2656H107.525ZM108.525 165H92.1436V167H108.525V165ZM93.1436 166V79.2656H91.1436V166H93.1436ZM92.1436 80.2656H108.525V78.2656H92.1436V80.2656ZM222.364 137.466V136.466H221.457L221.369 137.368L222.364 137.466ZM238.746 137.466L239.743 137.541L239.824 136.466H238.746V137.466ZM233.921 152.895L234.769 153.425L234.771 153.421L233.921 152.895ZM189.541 164.332L189.131 165.244L189.141 165.249L189.541 164.332ZM178.401 156.052L177.638 156.698L177.646 156.707L178.401 156.052ZM171.372 143.065L170.42 143.37L170.42 143.373L171.372 143.065ZM171.432 102.26L170.481 101.948L171.432 102.26ZM178.58 89.2734L177.825 88.6179L177.824 88.6185L178.58 89.2734ZM189.839 80.9336L189.435 80.0188L189.432 80.0201L189.839 80.9336ZM222.543 81.9463L222.07 82.8275L222.076 82.8304L222.543 81.9463ZM238.806 108.217V109.217H239.905L239.801 108.123L238.806 108.217ZM222.424 108.217L221.428 108.303L221.507 109.217H222.424V108.217ZM220.041 98.9238L219.141 99.3598L219.147 99.371L220.041 98.9238ZM214.441 93.1455L213.961 94.0223L213.969 94.0269L213.977 94.0313L214.441 93.1455ZM196.213 92.9072L195.772 92.0099L195.766 92.0128L196.213 92.9072ZM190.256 98.2686L191.084 98.8297L191.088 98.8233L190.256 98.2686ZM186.682 107.085L187.657 107.307L187.657 107.304L186.682 107.085ZM214.024 152.239L213.577 151.345L213.572 151.348L214.024 152.239ZM219.803 146.64L218.926 146.159L218.92 146.17L219.803 146.64ZM222.364 138.466H238.746V136.466H222.364V138.466ZM237.749 137.391C237.323 143.045 235.758 148.03 233.071 152.368L234.771 153.421C237.644 148.784 239.296 143.483 239.743 137.541L237.749 137.391ZM233.073 152.365C230.395 156.649 226.663 160.024 221.849 162.489L222.76 164.269C227.875 161.65 231.887 158.036 234.769 153.425L233.073 152.365ZM221.849 162.489C217.058 164.942 211.207 166.191 204.255 166.191V168.191C211.441 168.191 217.623 166.9 222.76 164.269L221.849 162.489ZM204.255 166.191C198.932 166.191 194.167 165.259 189.941 163.415L189.141 165.249C193.652 167.217 198.696 168.191 204.255 168.191V166.191ZM189.951 163.42C185.754 161.533 182.159 158.861 179.157 155.397L177.646 156.707C180.839 160.391 184.67 163.239 189.131 165.244L189.951 163.42ZM179.165 155.406C176.201 151.903 173.917 147.693 172.324 142.758L170.42 143.373C172.084 148.526 174.486 152.973 177.638 156.698L179.165 155.406ZM172.324 142.76C170.733 137.792 169.93 132.198 169.93 125.969H167.93C167.93 132.368 168.755 138.172 170.42 143.37L172.324 142.76ZM169.93 125.969V119.356H167.93V125.969H169.93ZM169.93 119.356C169.93 113.129 170.752 107.538 172.382 102.572L170.481 101.948C168.775 107.148 167.93 112.955 167.93 119.356H169.93ZM172.382 102.572C174.014 97.5979 176.336 93.3899 179.336 89.9284L177.824 88.6185C174.629 92.3054 172.185 96.755 170.481 101.948L172.382 102.572ZM179.335 89.929C182.377 86.4254 186.011 83.7335 190.246 81.8471L189.432 80.0201C184.93 82.0256 181.058 84.8936 177.825 88.6179L179.335 89.929ZM190.243 81.8484C194.508 79.9654 199.293 79.0146 204.612 79.0146V77.0146C199.05 77.0146 193.986 78.0098 189.435 80.0188L190.243 81.8484ZM204.612 79.0146C211.561 79.0146 217.365 80.3029 222.07 82.8274L223.016 81.0651C217.951 78.3475 211.802 77.0146 204.612 77.0146V79.0146ZM222.076 82.8304C226.806 85.3304 230.46 88.7596 233.062 93.1217L234.78 92.0971C231.981 87.4045 228.049 83.7249 223.01 81.0622L222.076 82.8304ZM233.062 93.1217C235.678 97.507 237.266 102.563 237.81 108.311L239.801 108.123C239.233 102.115 237.565 96.7665 234.78 92.0971L233.062 93.1217ZM238.806 107.217H222.424V109.217H238.806V107.217ZM223.42 108.13C223.094 104.386 222.276 101.158 220.935 98.4766L219.147 99.371C220.347 101.772 221.118 104.741 221.428 108.303L223.42 108.13ZM220.941 98.4879C219.616 95.7534 217.597 93.6696 214.905 92.2597L213.977 94.0313C216.29 95.2425 218.003 97.0109 219.141 99.3598L220.941 98.4879ZM214.922 92.2687C212.261 90.8091 208.799 90.1201 204.612 90.1201V92.1201C208.606 92.1201 211.698 92.7814 213.961 94.0223L214.922 92.2687ZM204.612 90.1201C201.309 90.1201 198.354 90.74 195.772 92.0099L196.654 93.8046C198.917 92.6917 201.561 92.1201 204.612 92.1201V90.1201ZM195.766 92.0128C193.216 93.2878 191.101 95.1975 189.424 97.7139L191.088 98.8233C192.587 96.574 194.445 94.9094 196.66 93.8017L195.766 92.0128ZM189.428 97.7074C187.753 100.179 186.52 103.242 185.706 106.866L187.657 107.304C188.431 103.859 189.582 101.045 191.084 98.8297L189.428 97.7074ZM185.707 106.863C184.892 110.448 184.49 114.576 184.49 119.237H186.49C186.49 114.685 186.883 110.711 187.657 107.307L185.707 106.863ZM184.49 119.237V125.969H186.49V119.237H184.49ZM184.49 125.969C184.49 130.429 184.852 134.45 185.583 138.024L187.542 137.623C186.844 134.207 186.49 130.325 186.49 125.969H184.49ZM185.583 138.024C186.316 141.607 187.464 144.683 189.05 147.228L190.747 146.17C189.314 143.87 188.239 141.029 187.542 137.623L185.583 138.024ZM189.05 147.228C190.646 149.791 192.719 151.763 195.266 153.122L196.207 151.357C193.988 150.173 192.169 148.453 190.747 146.17L189.05 147.228ZM195.266 153.122C197.822 154.485 200.83 155.146 204.255 155.146V153.146C201.087 153.146 198.416 152.535 196.207 151.357L195.266 153.122ZM204.255 155.146C208.36 155.146 211.788 154.497 214.477 153.131L213.572 151.348C211.257 152.523 208.172 153.146 204.255 153.146V155.146ZM214.472 153.134C217.195 151.772 219.275 149.759 220.685 147.109L218.92 146.17C217.709 148.445 215.937 150.165 213.577 151.345L214.472 153.134ZM220.68 147.12C222.111 144.509 222.993 141.312 223.36 137.563L221.369 137.368C221.021 140.927 220.195 143.845 218.926 146.159L220.68 147.12Z" fill="black"/>
<defs>
<filter id="filter0_d_4_35" x="0" y="0" width="256" height="256" filterUnits="userSpaceOnUse" color-interpolation-filters="sRGB">
<feFlood flood-opacity="0" result="BackgroundImageFix"/>
<feColorMatrix in="SourceAlpha" type="matrix" values="0 0 0 0 0 0 0 0 0 0 0 0 0 0 0 0 0 0 127 0" result="hardAlpha"/>
<feOffset dy="4"/>
<feGaussianBlur stdDeviation="2"/>
<feComposite in2="hardAlpha" operator="out"/>
<feColorMatrix type="matrix" values="0 0 0 0 0 0 0 0 0 0 0 0 0 0 0 0 0 0 0.25 0"/>
<feBlend mode="normal" in2="BackgroundImageFix" result="effect1_dropShadow_4_35"/>
<feBlend mode="normal" in="SourceGraphic" in2="effect1_dropShadow_4_35" result="shape"/>
</filter>
</defs>
</svg>
