<svg width="256" height="256" viewBox="0 0 256 256" fill="none" xmlns="http://www.w3.org/2000/svg">
<g filter="url(#filter0_d_4_35)">
<circle cx="128" cy="124" r="124" fill="black"/>
<circle cx="128" cy="124" r="123.5" stroke="black"/>
</g>
<path d="M87.418 149.334V157H49.7715V149.334H87.418ZM51.6758 85.9062V157H42.252V85.9062H51.6758ZM82.4375 116.473V124.139H49.7715V116.473H82.4375ZM86.9297 85.9062V93.6211H49.7715V85.9062H86.9297ZM118.326 157H103.482L103.58 149.334H118.326C123.404 149.334 127.636 148.276 131.021 146.16C134.407 144.012 136.946 141.017 138.639 137.176C140.364 133.302 141.227 128.777 141.227 123.602V119.256C141.227 115.187 140.738 111.574 139.762 108.416C138.785 105.226 137.353 102.54 135.465 100.359C133.577 98.1458 131.266 96.4694 128.531 95.3301C125.829 94.1908 122.721 93.6211 119.205 93.6211H103.189V85.9062H119.205C123.86 85.9062 128.108 86.6875 131.949 88.25C135.79 89.7799 139.094 92.0098 141.861 94.9395C144.661 97.8366 146.809 101.352 148.307 105.486C149.804 109.588 150.553 114.21 150.553 119.354V123.602C150.553 128.745 149.804 133.383 148.307 137.518C146.809 141.619 144.645 145.118 141.812 148.016C139.013 150.913 135.628 153.143 131.656 154.705C127.717 156.235 123.274 157 118.326 157ZM108.512 85.9062V157H99.0879V85.9062H108.512ZM207.633 134.393H217.008C216.52 138.885 215.234 142.905 213.15 146.453C211.067 150.001 208.121 152.817 204.312 154.9C200.504 156.951 195.751 157.977 190.055 157.977C185.888 157.977 182.096 157.195 178.678 155.633C175.292 154.07 172.379 151.857 169.938 148.992C167.496 146.095 165.608 142.628 164.273 138.592C162.971 134.523 162.32 129.998 162.32 125.018V117.938C162.32 112.957 162.971 108.449 164.273 104.412C165.608 100.343 167.512 96.86 169.986 93.9629C172.493 91.0658 175.504 88.8359 179.02 87.2734C182.535 85.7109 186.49 84.9297 190.885 84.9297C196.256 84.9297 200.797 85.9388 204.508 87.957C208.219 89.9753 211.1 92.7747 213.15 96.3555C215.234 99.9036 216.52 104.021 217.008 108.709H207.633C207.177 105.389 206.331 102.54 205.094 100.164C203.857 97.7552 202.099 95.8997 199.82 94.5977C197.542 93.2956 194.563 92.6445 190.885 92.6445C187.727 92.6445 184.944 93.2467 182.535 94.4512C180.159 95.6556 178.157 97.3646 176.529 99.5781C174.934 101.792 173.73 104.445 172.916 107.537C172.102 110.63 171.695 114.064 171.695 117.84V125.018C171.695 128.501 172.053 131.772 172.77 134.832C173.518 137.892 174.641 140.577 176.139 142.889C177.636 145.2 179.54 147.023 181.852 148.357C184.163 149.66 186.897 150.311 190.055 150.311C194.059 150.311 197.249 149.676 199.625 148.406C202.001 147.137 203.792 145.314 204.996 142.938C206.233 140.561 207.112 137.713 207.633 134.393Z" fill="white"/>
<path d="M87.418 149.334H88.418V148.334H87.418V149.334ZM87.418 157V158H88.418V157H87.418ZM49.7715 157H48.7715V158H49.7715V157ZM49.7715 149.334V148.334H48.7715V149.334H49.7715ZM51.6758 85.9062H52.6758V84.9062H51.6758V85.9062ZM51.6758 157V158H52.6758V157H51.6758ZM42.252 157H41.252V158H42.252V157ZM42.252 85.9062V84.9062H41.252V85.9062H42.252ZM82.4375 116.473H83.4375V115.473H82.4375V116.473ZM82.4375 124.139V125.139H83.4375V124.139H82.4375ZM49.7715 124.139H48.7715V125.139H49.7715V124.139ZM49.7715 116.473V115.473H48.7715V116.473H49.7715ZM86.9297 85.9062H87.9297V84.9062H86.9297V85.9062ZM86.9297 93.6211V94.6211H87.9297V93.6211H86.9297ZM49.7715 93.6211H48.7715V94.6211H49.7715V93.6211ZM49.7715 85.9062V84.9062H48.7715V85.9062H49.7715ZM86.418 149.334V157H88.418V149.334H86.418ZM87.418 156H49.7715V158H87.418V156ZM50.7715 157V149.334H48.7715V157H50.7715ZM49.7715 150.334H87.418V148.334H49.7715V150.334ZM50.6758 85.9062V157H52.6758V85.9062H50.6758ZM51.6758 156H42.252V158H51.6758V156ZM43.252 157V85.9062H41.252V157H43.252ZM42.252 86.9062H51.6758V84.9062H42.252V86.9062ZM81.4375 116.473V124.139H83.4375V116.473H81.4375ZM82.4375 123.139H49.7715V125.139H82.4375V123.139ZM50.7715 124.139V116.473H48.7715V124.139H50.7715ZM49.7715 117.473H82.4375V115.473H49.7715V117.473ZM85.9297 85.9062V93.6211H87.9297V85.9062H85.9297ZM86.9297 92.6211H49.7715V94.6211H86.9297V92.6211ZM50.7715 93.6211V85.9062H48.7715V93.6211H50.7715ZM49.7715 86.9062H86.9297V84.9062H49.7715V86.9062ZM103.482 157L102.483 156.987L102.47 158H103.482V157ZM103.58 149.334V148.334H102.593L102.58 149.321L103.58 149.334ZM131.021 146.16L131.551 147.008L131.557 147.004L131.021 146.16ZM138.639 137.176L137.725 136.769L137.724 136.773L138.639 137.176ZM139.762 108.416L138.806 108.709L138.806 108.711L139.762 108.416ZM135.465 100.359L134.704 101.008L134.709 101.014L135.465 100.359ZM128.531 95.3301L128.143 96.2515L128.147 96.2532L128.531 95.3301ZM103.189 93.6211H102.189V94.6211H103.189V93.6211ZM103.189 85.9062V84.9062H102.189V85.9062H103.189ZM131.949 88.25L131.572 89.1763L131.579 89.179L131.949 88.25ZM141.861 94.9395L141.134 95.6261L141.142 95.6343L141.861 94.9395ZM148.307 105.486L147.366 105.827L147.367 105.829L148.307 105.486ZM148.307 137.518L149.246 137.861L149.247 137.858L148.307 137.518ZM141.812 148.016L141.097 147.317L141.093 147.321L141.812 148.016ZM131.656 154.705L132.018 155.637L132.022 155.636L131.656 154.705ZM108.512 85.9062H109.512V84.9062H108.512V85.9062ZM108.512 157V158H109.512V157H108.512ZM99.0879 157H98.0879V158H99.0879V157ZM99.0879 85.9062V84.9062H98.0879V85.9062H99.0879ZM118.326 156H103.482V158H118.326V156ZM104.482 157.013L104.58 149.347L102.58 149.321L102.483 156.987L104.482 157.013ZM103.58 150.334H118.326V148.334H103.58V150.334ZM118.326 150.334C123.541 150.334 127.969 149.247 131.551 147.008L130.491 145.312C127.303 147.305 123.267 148.334 118.326 148.334V150.334ZM131.557 147.004C135.118 144.745 137.785 141.593 139.554 137.579L137.724 136.773C136.107 140.441 133.696 143.279 130.486 145.316L131.557 147.004ZM139.552 137.583C141.346 133.556 142.227 128.887 142.227 123.602H140.227C140.227 128.667 139.382 133.048 137.725 136.769L139.552 137.583ZM142.227 123.602V119.256H140.227V123.602H142.227ZM142.227 119.256C142.227 115.109 141.729 111.393 140.717 108.121L138.806 108.711C139.747 111.754 140.227 115.265 140.227 119.256H142.227ZM140.718 108.123C139.707 104.821 138.213 102.006 136.221 99.7049L134.709 101.014C136.492 103.074 137.863 105.631 138.806 108.709L140.718 108.123ZM136.226 99.7104C134.234 97.3749 131.793 95.6057 128.916 94.407L128.147 96.2532C130.739 97.3331 132.92 98.9167 134.704 101.008L136.226 99.7104ZM128.92 94.4087C126.073 93.2082 122.828 92.6211 119.205 92.6211V94.6211C122.613 94.6211 125.586 95.1733 128.143 96.2515L128.92 94.4087ZM119.205 92.6211H103.189V94.6211H119.205V92.6211ZM104.189 93.6211V85.9062H102.189V93.6211H104.189ZM103.189 86.9062H119.205V84.9062H103.189V86.9062ZM119.205 86.9062C123.747 86.9062 127.865 87.6681 131.572 89.1763L132.326 87.3237C128.351 85.7069 123.973 84.9062 119.205 84.9062V86.9062ZM131.579 89.179C135.289 90.6566 138.47 92.805 141.134 95.6261L142.588 94.2528C139.719 91.2145 136.292 88.9033 132.319 87.321L131.579 89.179ZM141.142 95.6343C143.835 98.4213 145.913 101.813 147.366 105.827L149.247 105.146C147.706 100.892 145.486 97.2519 142.58 94.2446L141.142 95.6343ZM147.367 105.829C148.818 109.803 149.553 114.307 149.553 119.354H151.553C151.553 114.114 150.79 109.372 149.246 105.143L147.367 105.829ZM149.553 119.354V123.602H151.553V119.354H149.553ZM149.553 123.602C149.553 128.648 148.818 133.169 147.366 137.177L149.247 137.858C150.79 133.598 151.553 128.842 151.553 123.602H149.553ZM147.367 137.175C145.915 141.153 143.823 144.529 141.097 147.317L142.528 148.715C145.466 145.708 147.704 142.085 149.246 137.861L147.367 137.175ZM141.093 147.321C138.399 150.109 135.136 152.261 131.29 153.775L132.022 155.636C136.119 154.024 139.627 151.717 142.532 148.711L141.093 147.321ZM131.294 153.773C127.489 155.251 123.171 156 118.326 156V158C123.377 158 127.946 157.219 132.018 155.637L131.294 153.773ZM107.512 85.9062V157H109.512V85.9062H107.512ZM108.512 156H99.0879V158H108.512V156ZM100.088 157V85.9062H98.0879V157H100.088ZM99.0879 86.9062H108.512V84.9062H99.0879V86.9062ZM207.633 134.393V133.393H206.777L206.645 134.238L207.633 134.393ZM217.008 134.393L218.002 134.501L218.122 133.393H217.008V134.393ZM204.312 154.9L204.787 155.781L204.792 155.778L204.312 154.9ZM178.678 155.633L178.259 156.541L178.262 156.542L178.678 155.633ZM169.938 148.992L169.173 149.637L169.176 149.641L169.938 148.992ZM164.273 138.592L163.321 138.897L163.324 138.906L164.273 138.592ZM164.273 104.412L163.323 104.1L163.322 104.105L164.273 104.412ZM169.986 93.9629L169.23 93.3086L169.226 93.3135L169.986 93.9629ZM213.15 96.3555L212.283 96.8525L212.288 96.8618L213.15 96.3555ZM217.008 108.709V109.709H218.117L218.002 108.605L217.008 108.709ZM207.633 108.709L206.642 108.845L206.761 109.709H207.633V108.709ZM205.094 100.164L204.204 100.621L204.207 100.626L205.094 100.164ZM182.535 94.4512L182.088 93.5567L182.083 93.5592L182.535 94.4512ZM176.529 99.5781L175.724 98.9857L175.718 98.9935L176.529 99.5781ZM172.916 107.537L171.949 107.283L172.916 107.537ZM172.77 134.832L171.796 135.06L171.798 135.07L172.77 134.832ZM181.852 148.357L181.351 149.223L181.361 149.229L181.852 148.357ZM204.996 142.938L204.109 142.476L204.104 142.485L204.996 142.938ZM207.633 135.393H217.008V133.393H207.633V135.393ZM216.014 134.285C215.539 138.65 214.293 142.532 212.288 145.947L214.013 146.959C216.174 143.278 217.5 139.119 218.002 134.501L216.014 134.285ZM212.288 145.947C210.301 149.33 207.492 152.022 203.833 154.023L204.792 155.778C208.751 153.613 211.833 150.672 214.013 146.959L212.288 145.947ZM203.838 154.02C200.214 155.971 195.636 156.977 190.055 156.977V158.977C195.866 158.977 200.793 157.931 204.787 155.781L203.838 154.02ZM190.055 156.977C186.016 156.977 182.367 156.22 179.093 154.723L178.262 156.542C181.824 158.171 185.76 158.977 190.055 158.977V156.977ZM179.097 154.725C175.844 153.224 173.047 151.099 170.699 148.344L169.176 149.641C171.711 152.615 174.741 154.917 178.259 156.541L179.097 154.725ZM170.702 148.348C168.352 145.559 166.522 142.208 165.223 138.278L163.324 138.906C164.694 143.048 166.64 146.631 169.173 149.637L170.702 148.348ZM165.226 138.287C163.96 134.331 163.32 129.911 163.32 125.018H161.32C161.32 130.085 161.983 134.714 163.321 138.897L165.226 138.287ZM163.32 125.018V117.938H161.32V125.018H163.32ZM163.32 117.938C163.32 113.044 163.96 108.641 165.225 104.719L163.322 104.105C161.983 108.256 161.32 112.871 161.32 117.938H163.32ZM165.224 104.724C166.523 100.763 168.367 97.3987 170.747 94.6123L169.226 93.3135C166.657 96.3213 164.693 99.9229 163.323 104.1L165.224 104.724ZM170.743 94.6172C173.152 91.8317 176.044 89.6903 179.426 88.1872L178.613 86.3596C174.964 87.9816 171.833 90.2998 169.23 93.3086L170.743 94.6172ZM179.426 88.1872C182.796 86.6891 186.61 85.9297 190.885 85.9297V83.9297C186.37 83.9297 182.274 84.7328 178.613 86.3596L179.426 88.1872ZM190.885 85.9297C196.133 85.9297 200.5 86.9158 204.03 88.8355L204.986 87.0785C201.093 84.9618 196.378 83.9297 190.885 83.9297V85.9297ZM204.03 88.8355C207.582 90.7674 210.326 93.4366 212.283 96.8525L214.018 95.8585C211.873 92.1129 208.855 89.1831 204.986 87.0785L204.03 88.8355ZM212.288 96.8618C214.289 100.27 215.538 104.247 216.013 108.813L218.002 108.605C217.501 103.796 216.178 99.5373 214.013 95.8491L212.288 96.8618ZM217.008 107.709H207.633V109.709H217.008V107.709ZM208.624 108.573C208.156 105.166 207.282 102.202 205.981 99.7023L204.207 100.626C205.379 102.878 206.198 105.611 206.642 108.845L208.624 108.573ZM205.983 99.7073C204.661 97.1318 202.769 95.1308 200.316 93.7294L199.324 95.4659C201.429 96.6687 203.053 98.3786 204.204 100.621L205.983 99.7073ZM200.316 93.7294C197.838 92.3132 194.671 91.6445 190.885 91.6445V93.6445C194.455 93.6445 197.245 94.278 199.324 95.4659L200.316 93.7294ZM190.885 91.6445C187.599 91.6445 184.658 92.2719 182.088 93.5567L182.982 95.3456C185.23 94.2216 187.856 93.6445 190.885 93.6445V91.6445ZM182.083 93.5592C179.563 94.8367 177.441 96.6501 175.724 98.9857L177.335 100.171C178.873 98.0791 180.755 96.4745 182.987 95.3431L182.083 93.5592ZM175.718 98.9935C174.04 101.322 172.789 104.092 171.949 107.283L173.883 107.792C174.671 104.798 175.828 102.261 177.341 100.163L175.718 98.9935ZM171.949 107.283C171.11 110.471 170.695 113.993 170.695 117.84H172.695C172.695 114.135 173.095 110.788 173.883 107.792L171.949 107.283ZM170.695 117.84V125.018H172.695V117.84H170.695ZM170.695 125.018C170.695 128.569 171.06 131.918 171.796 135.06L173.743 134.604C173.046 131.627 172.695 128.432 172.695 125.018H170.695ZM171.798 135.07C172.57 138.223 173.733 141.015 175.299 143.432L176.978 142.345C175.549 140.14 174.467 137.561 173.741 134.594L171.798 135.07ZM175.299 143.432C176.88 145.872 178.899 147.807 181.351 149.223L182.352 147.491C180.182 146.238 178.392 144.528 176.978 142.345L175.299 143.432ZM181.361 149.229C183.848 150.63 186.758 151.311 190.055 151.311V149.311C187.036 149.311 184.478 148.689 182.342 147.486L181.361 149.229ZM190.055 151.311C194.149 151.311 197.521 150.664 200.096 149.288L199.154 147.524C196.976 148.688 193.968 149.311 190.055 149.311V151.311ZM200.096 149.288C202.651 147.923 204.59 145.951 205.888 143.39L204.104 142.485C202.994 144.676 201.351 146.35 199.154 147.524L200.096 149.288ZM205.883 143.399C207.181 140.906 208.087 137.949 208.621 134.548L206.645 134.238C206.137 137.477 205.285 140.216 204.109 142.476L205.883 143.399Z" fill="black"/>
<defs>
<filter id="filter0_d_4_35" x="0" y="0" width="256" height="256" filterUnits="userSpaceOnUse" color-interpolation-filters="sRGB">
<feFlood flood-opacity="0" result="BackgroundImageFix"/>
<feColorMatrix in="SourceAlpha" type="matrix" values="0 0 0 0 0 0 0 0 0 0 0 0 0 0 0 0 0 0 127 0" result="hardAlpha"/>
<feOffset dy="4"/>
<feGaussianBlur stdDeviation="2"/>
<feComposite in2="hardAlpha" operator="out"/>
<feColorMatrix type="matrix" values="0 0 0 0 0 0 0 0 0 0 0 0 0 0 0 0 0 0 0.25 0"/>
<feBlend mode="normal" in2="BackgroundImageFix" result="effect1_dropShadow_4_35"/>
<feBlend mode="normal" in="SourceGraphic" in2="effect1_dropShadow_4_35" result="shape"/>
</filter>
</defs>
</svg>
